<?xml version="1.0" encoding="UTF-8"?>
<svg width="110px" height="28px" viewBox="0 0 110 28" version="1.1" xmlns="http://www.w3.org/2000/svg" xmlns:xlink="http://www.w3.org/1999/xlink">
    <!-- Generator: Sketch 41 (35326) - http://www.bohemiancoding.com/sketch -->
    <title>logo</title>
    <desc>Created with Sketch.</desc>
    <defs></defs>
    <g id="Page-1" stroke="none" stroke-width="1" fill="none" fill-rule="evenodd">
        <g id="Home-State" transform="translate(-105.000000, -25.000000)">
            <g id="logo" transform="translate(105.000000, 25.000000)">
                <path d="M11.869,8.981 C12.8656717,9.57900299 13.6369973,10.4239945 14.183,11.516 C14.7290027,12.6080055 15.002,13.8646596 15.002,15.286 C15.002,16.690007 14.733336,17.9249947 14.196,18.991 C13.658664,20.0570053 12.9003382,20.8846637 11.921,21.474 C10.9416618,22.0633363 9.8020065,22.358 8.502,22.358 C7.53132848,22.358 6.66900377,22.1716685 5.915,21.799 C5.16099623,21.4263315 4.5240026,20.8846702 4.004,20.174 L4.004,22.202 L0,22.202 L0,2.91 L4.004,2.91 L4.004,10.268 C4.50666918,9.55732978 5.13499623,9.01566853 5.889,8.643 C6.64300377,8.27033147 7.48799532,8.084 8.424,8.084 C9.7240065,8.084 10.8723284,8.38299701 11.869,8.981 Z M9.984,17.951 C10.6253365,17.2316631 10.946,16.3000057 10.946,15.156 C10.946,14.0293277 10.6253365,13.1063369 9.984,12.387 C9.34266346,11.6676631 8.51067178,11.308 7.488,11.308 C6.46532822,11.308 5.62900325,11.6676631 4.979,12.387 C4.32899675,13.1063369 4.004,14.0293277 4.004,15.156 C4.004,16.3173391 4.32899675,17.2533298 4.979,17.964 C5.62900325,18.6746702 6.46532822,19.03 7.488,19.03 C8.51067178,19.03 9.34266346,18.6703369 9.984,17.951 Z M19.3142857,27.428 C18.5689486,27.428 17.8929554,27.3196677 17.2862857,27.103 C16.679616,26.8863322 16.0902886,26.5440023 15.5182857,26.076 L17.2082857,23.19 C17.8149554,23.6926692 18.421616,23.944 19.0282857,23.944 C19.8776233,23.944 20.4929505,23.5280042 20.8742857,22.696 L21.2642857,21.916 L15.4662857,8.214 L19.6002857,8.214 L23.2662857,17.834 L26.5682857,8.214 L30.5722857,8.214 L24.4362857,23.762 C23.4656142,26.2060122 21.7582979,27.428 19.3142857,27.428 Z M41.4365714,21.422 C40.9165688,21.7340016 40.3402412,21.9723325 39.7075714,22.137 C39.0749016,22.3016675 38.4379079,22.384 37.7965714,22.384 C36.4965649,22.384 35.4392421,22.0113371 34.6245714,21.266 C33.8099007,20.5206629 33.4025714,19.4546736 33.4025714,18.068 L33.4025714,11.594 L31.4525714,11.594 L31.4525714,8.838 L33.4025714,8.838 L33.4025714,4.99 L37.3805714,4.99 L37.3805714,8.838 L41.1765714,8.838 L41.1765714,11.62 L37.3805714,11.62 L37.3805714,17.392 C37.3805714,18.466672 37.8052338,19.004 38.6545714,19.004 C39.2439077,19.004 39.8939012,18.8306684 40.6045714,18.484 L41.4365714,21.422 Z M55.3558571,10.034 C56.525863,11.3340065 57.1108571,13.1453217 57.1108571,15.468 C57.1108571,15.8840021 57.1021905,16.2046655 57.0848571,16.43 L47.0488571,16.43 C47.2741916,17.3140044 47.7075206,18.0029975 48.3488571,18.497 C48.9901936,18.9910025 49.7615193,19.238 50.6628571,19.238 C51.3215271,19.238 51.9541874,19.1123346 52.5608571,18.861 C53.1675268,18.6096654 53.7135213,18.2413358 54.1988571,17.756 L56.3048571,19.888 C55.5941869,20.6853373 54.7318622,21.2963312 53.7178571,21.721 C52.703852,22.1456688 51.5728633,22.358 50.3248571,22.358 C48.8515164,22.358 47.5645293,22.0633363 46.4638571,21.474 C45.3631849,20.8846637 44.5138601,20.052672 43.9158571,18.978 C43.3178541,17.903328 43.0188571,16.664007 43.0188571,15.26 C43.0188571,13.8386596 43.3221874,12.5863388 43.9288571,11.503 C44.5355268,10.4196613 45.3848516,9.57900299 46.4768571,8.981 C47.5688626,8.38299701 48.8168501,8.084 50.2208571,8.084 C52.4742017,8.084 54.1858513,8.7339935 55.3558571,10.034 Z M53.3408571,14.064 C53.3061903,13.1453287 53.0115265,12.4086694 52.4568571,11.854 C51.9021877,11.2993306 51.1655284,11.022 50.2468571,11.022 C49.3801861,11.022 48.6565267,11.2949973 48.0758571,11.841 C47.4951875,12.3870027 47.1268579,13.1279953 46.9708571,14.064 L53.3408571,14.064 Z M66.7531428,11.321 C66.0078057,11.0869988 65.3404791,10.97 64.7511428,10.97 C64.265807,10.97 63.8758109,11.0566658 63.5811428,11.23 C63.2864747,11.4033342 63.1391428,11.6633316 63.1391428,12.01 C63.1391428,12.3913352 63.3384741,12.685999 63.7371428,12.894 C64.1358115,13.102001 64.785805,13.3359987 65.6871428,13.596 C66.6751477,13.8906681 67.4898063,14.1809986 68.1311428,14.467 C68.7724793,14.7530014 69.3271405,15.1776638 69.7951428,15.741 C70.2631451,16.3043361 70.4971428,17.0453287 70.4971428,17.964 C70.4971428,19.3506736 69.9641481,20.4296628 68.8981428,21.201 C67.8321375,21.9723372 66.4671511,22.358 64.8031428,22.358 C63.6591371,22.358 62.5584814,22.1890017 61.5011428,21.851 C60.4438042,21.5129983 59.5251467,21.0320031 58.7451428,20.408 L60.0451428,17.704 C60.755813,18.2586694 61.5488051,18.6876651 62.4241428,18.991 C63.2994805,19.2943348 64.1271389,19.446 64.9071428,19.446 C65.4444788,19.446 65.8734745,19.3550009 66.1941428,19.173 C66.5148111,18.9909991 66.6751428,18.7180018 66.6751428,18.354 C66.6751428,17.9553313 66.4714782,17.6433345 66.0641428,17.418 C65.6568074,17.1926655 65.0024806,16.9500013 64.1011428,16.69 C63.1478047,16.4126653 62.3548126,16.1353347 61.7221428,15.858 C61.089473,15.5806653 60.5478117,15.1603361 60.0971428,14.597 C59.6464739,14.0336638 59.4211428,13.3013378 59.4211428,12.4 C59.4211428,11.0133264 59.9411376,9.93867048 60.9811428,9.176 C62.021148,8.41332952 63.3384682,8.032 64.9331428,8.032 C65.8864809,8.032 66.8398047,8.16633199 67.7931428,8.435 C68.7464809,8.70366801 69.6131389,9.08933082 70.3931428,9.592 L69.0151428,12.322 C68.2524723,11.8886645 67.4984799,11.5550012 66.7531428,11.321 Z M77.1884285,0.624 C77.5957639,1.04000208 77.7994285,1.57733004 77.7994285,2.236 C77.7994285,2.89466996 77.5957639,3.43199792 77.1884285,3.848 C76.7810931,4.26400208 76.256765,4.472 75.6154285,4.472 C74.9914254,4.472 74.4757639,4.25966879 74.0684285,3.835 C73.6610931,3.41033121 73.4574285,2.87733654 73.4574285,2.236 C73.4574285,1.57733004 73.6610931,1.04000208 74.0684285,0.624 C74.4757639,0.20799792 74.9914254,0 75.6154285,0 C76.256765,0 76.7810931,0.20799792 77.1884285,0.624 Z M81.2797142,8.24 L93.2137142,8.24 L93.2137142,10.762 L86.0117142,19.056 L93.4477142,19.056 L93.4477142,22.228 L81.0197142,22.202 L81.0197142,19.68 L88.2217142,11.386 L81.2797142,11.36 L81.2797142,8.24 Z M107.705,10.034 C108.875006,11.3340065 109.46,13.1453217 109.46,15.468 C109.46,15.8840021 109.451333,16.2046655 109.434,16.43 L99.3979999,16.43 C99.6233344,17.3140044 100.056663,18.0029975 100.698,18.497 C101.339336,18.9910025 102.110662,19.238 103.012,19.238 C103.67067,19.238 104.30333,19.1123346 104.91,18.861 C105.51667,18.6096654 106.062664,18.2413358 106.548,17.756 L108.654,19.888 C107.94333,20.6853373 107.081005,21.2963312 106.067,21.721 C105.052995,22.1456688 103.922006,22.358 102.674,22.358 C101.200659,22.358 99.9136721,22.0633363 98.8129999,21.474 C97.7123277,20.8846637 96.8630029,20.052672 96.2649999,18.978 C95.6669969,17.903328 95.3679999,16.664007 95.3679999,15.26 C95.3679999,13.8386596 95.6713302,12.5863388 96.2779999,11.503 C96.8846696,10.4196613 97.7339945,9.57900299 98.8259999,8.981 C99.9180054,8.38299701 101.165993,8.084 102.57,8.084 C104.823345,8.084 106.534994,8.7339935 107.705,10.034 Z M105.69,14.064 C105.655333,13.1453287 105.360669,12.4086694 104.806,11.854 C104.25133,11.2993306 103.514671,11.022 102.596,11.022 C101.729329,11.022 101.005669,11.2949973 100.425,11.841 C99.8443303,12.3870027 99.4760007,13.1279953 99.3199999,14.064 L105.69,14.064 Z" id="bytesize" fill="#0087DE"></path>
                <polygon id="Path-Copy-4" fill="#0087DE" points="77.946 17.202 73.946 17.202 73.946 13.202 77.946 13.202"></polygon>
                <polygon id="Path-Copy-5" fill="#000000" points="77.946 12.202 73.946 12.202 73.946 8.202 77.946 8.202"></polygon>
                <polygon id="Path-Copy-6" fill="#000000" points="77.946 22.202 73.946 22.202 73.946 18.202 77.946 18.202"></polygon>
            </g>
        </g>
    </g>
</svg>